<svg width="64" height="64" viewBox="0 0 64 64" fill="none" xmlns="http://www.w3.org/2000/svg">
<rect width="64" height="64" fill="#125DE6"/>
<path fill-rule="evenodd" clip-rule="evenodd" d="M23.1318 50H9.5L9.50015 14H24.6053C26.1261 14 29.0652 14.2491 30.4914 14.6027C35.0537 15.7518 37.7486 18.1063 39.8524 21.5536C41.6648 24.4545 42.5 28.0545 42.5 32C42.5 35.3027 41.8618 38.2518 40.735 40.7991C38.8754 44.8973 36.2278 47.4527 31.5631 48.8991C29.1598 49.6545 26.0237 50 23.1318 50ZM17 21.5H23.2904C26.0523 21.5 28.2217 21.7648 29.2585 22.1322C32.1859 23.2429 33.2139 24.6782 34.1897 27.0191C34.7822 28.4544 35 30.1546 35 31.9658C35 34.2555 34.6776 36.4854 33.5886 38.3478C32.6738 40.048 31.3669 41.1672 29.0929 41.8592C28.274 42.1241 26.0523 42.5 24.2662 42.5H17V21.5Z" fill="white"/>
<path d="M47 42.5H54.5V50H47V42.5ZM47 14H54.5V38.0479H47.044L47 14Z" fill="white"/>
</svg>
