<svg width="60" height="60" viewBox="0 0 60 60" fill="none" xmlns="http://www.w3.org/2000/svg">
<path fill-rule="evenodd" clip-rule="evenodd" d="M22.6055 12C24.1262 12 27.0649 12.249 28.4912 12.6025C33.0535 13.7516 35.7487 16.1064 37.8525 19.5537C39.6648 22.4546 40.5 26.0545 40.5 30C40.5 33.3025 39.862 36.2516 38.7354 38.7988C36.8758 42.897 34.228 45.453 29.5635 46.8994C27.1602 47.6548 24.0237 48 21.1318 48H7.5V12H22.6055ZM15 40.5H22.2666C24.0525 40.4999 26.2737 40.1242 27.0928 39.8594C29.3667 39.1673 30.6741 38.0478 31.5889 36.3477C32.6778 34.4852 33 32.2554 33 29.9658C33 28.1547 32.7818 26.4548 32.1895 25.0195C31.2137 22.6786 30.1861 21.2425 27.2588 20.1318C26.222 19.7645 24.0519 19.5 21.29 19.5H15V40.5Z" fill="white"/>
<path d="M45 40.5H52.5V48H45V40.5ZM45 12H52.5V36.0479H45.044L45 12Z" fill="white"/>
</svg>
