<svg width="64" height="64" viewBox="0 0 64 64" fill="none" xmlns="http://www.w3.org/2000/svg">
<rect width="64" height="64" fill="#125DE6"/>
<path d="M29 11C36.8404 11 43.5089 16.0133 45.9775 23.0088C49.0051 23.114 51.7768 24.2191 53.9795 26H37C35.8954 26 35 26.8954 35 28V50H15.5C9.70101 50 5 45.299 5 39.5C5 35.3009 7.4655 31.6787 11.0273 29.999C11.0093 29.6683 11 29.3352 11 29C11 19.0589 19.0589 11 29 11Z" fill="white"/>
<path d="M58 29C58.5523 29 59 29.4477 59 30V58C59 58.5523 58.5523 59 58 59H39C38.4477 59 38 58.5523 38 58V30C38 29.4477 38.4477 29 39 29H58ZM41 56H44V53H41V56ZM47 56H50V53H47V56ZM53 53V56H56V53H53ZM41 41H56V38H41V41ZM41 35H56V32H41V35Z" fill="white"/>
</svg>
